<svg width="1920" height="1080" xmlns="http://www.w3.org/2000/svg" xmlns:xlink="http://www.w3.org/1999/xlink" version="1.1" baseProfile="full" viewBox="0 0 1920 1080">
<rect width="1920" height="1080" x="0" y="0" fill="#100C2A"></rect>
<path d="M192.5 60L192.5 1010" fill="transparent" stroke="#484753" class="zr0-cls-0"></path>
<path d="M411.5 60L411.5 1010" fill="transparent" stroke="#484753" class="zr0-cls-0"></path>
<path d="M631.5 60L631.5 1010" fill="transparent" stroke="#484753" class="zr0-cls-0"></path>
<path d="M850.5 60L850.5 1010" fill="transparent" stroke="#484753" class="zr0-cls-0"></path>
<path d="M1069.5 60L1069.5 1010" fill="transparent" stroke="#484753" class="zr0-cls-0"></path>
<path d="M1289.5 60L1289.5 1010" fill="transparent" stroke="#484753" class="zr0-cls-0"></path>
<path d="M1508.5 60L1508.5 1010" fill="transparent" stroke="#484753" class="zr0-cls-0"></path>
<path d="M1728.5 60L1728.5 1010" fill="transparent" stroke="#484753" class="zr0-cls-0"></path>
<path d="M192.5 1010L192.5 60" fill="transparent" stroke="#B9B8CE" stroke-linecap="round" class="zr0-cls-0"></path>
<path d="M192 1010.5L187 1010.5" fill="transparent" stroke="#B9B8CE" class="zr0-cls-0"></path>
<path d="M192 915.5L187 915.5" fill="transparent" stroke="#B9B8CE" class="zr0-cls-0"></path>
<path d="M192 820.5L187 820.5" fill="transparent" stroke="#B9B8CE" class="zr0-cls-0"></path>
<path d="M192 725.5L187 725.5" fill="transparent" stroke="#B9B8CE" class="zr0-cls-0"></path>
<path d="M192 630.5L187 630.5" fill="transparent" stroke="#B9B8CE" class="zr0-cls-0"></path>
<path d="M192 535.5L187 535.5" fill="transparent" stroke="#B9B8CE" class="zr0-cls-0"></path>
<path d="M192 440.5L187 440.5" fill="transparent" stroke="#B9B8CE" class="zr0-cls-0"></path>
<path d="M192 345.5L187 345.5" fill="transparent" stroke="#B9B8CE" class="zr0-cls-0"></path>
<path d="M192 250.5L187 250.5" fill="transparent" stroke="#B9B8CE" class="zr0-cls-0"></path>
<path d="M192 155.5L187 155.5" fill="transparent" stroke="#B9B8CE" class="zr0-cls-0"></path>
<path d="M192 60.5L187 60.5" fill="transparent" stroke="#B9B8CE" class="zr0-cls-0"></path>
<text dominant-baseline="central" text-anchor="end" style="font-size:12px;font-family:sans-serif;" transform="translate(184 962.5)" fill="#B9B8CE">2025::1_0</text>
<text dominant-baseline="central" text-anchor="end" style="font-size:12px;font-family:sans-serif;" transform="translate(184 867.5)" fill="#B9B8CE">2025::1_1</text>
<text dominant-baseline="central" text-anchor="end" style="font-size:12px;font-family:sans-serif;" transform="translate(184 772.5)" fill="#B9B8CE">2025::2_0</text>
<text dominant-baseline="central" text-anchor="end" style="font-size:12px;font-family:sans-serif;" transform="translate(184 677.5)" fill="#B9B8CE">2025::2_1</text>
<text dominant-baseline="central" text-anchor="end" style="font-size:12px;font-family:sans-serif;" transform="translate(184 582.5)" fill="#B9B8CE">2025::3_0</text>
<text dominant-baseline="central" text-anchor="end" style="font-size:12px;font-family:sans-serif;" transform="translate(184 487.5)" fill="#B9B8CE">2025::3_1</text>
<text dominant-baseline="central" text-anchor="end" style="font-size:12px;font-family:sans-serif;" transform="translate(184 392.5)" fill="#B9B8CE">2025::4_0</text>
<text dominant-baseline="central" text-anchor="end" style="font-size:12px;font-family:sans-serif;" transform="translate(184 297.5)" fill="#B9B8CE">2025::4_1</text>
<text dominant-baseline="central" text-anchor="end" style="font-size:12px;font-family:sans-serif;" transform="translate(184 202.5)" fill="#B9B8CE">2025::5_0</text>
<text dominant-baseline="central" text-anchor="end" style="font-size:12px;font-family:sans-serif;" transform="translate(184 107.5)" fill="#B9B8CE">2025::5_1</text>
<text dominant-baseline="central" text-anchor="middle" style="font-size:12px;font-family:sans-serif;" y="6" transform="translate(192 1018)" fill="#B9B8CE">0</text>
<text dominant-baseline="central" text-anchor="middle" style="font-size:12px;font-family:sans-serif;" y="6" transform="translate(411.4286 1018)" fill="#B9B8CE">1</text>
<text dominant-baseline="central" text-anchor="middle" style="font-size:12px;font-family:sans-serif;" y="6" transform="translate(630.8571 1018)" fill="#B9B8CE">2</text>
<text dominant-baseline="central" text-anchor="middle" style="font-size:12px;font-family:sans-serif;" y="6" transform="translate(850.2857 1018)" fill="#B9B8CE">3</text>
<text dominant-baseline="central" text-anchor="middle" style="font-size:12px;font-family:sans-serif;" y="6" transform="translate(1069.7143 1018)" fill="#B9B8CE">4</text>
<text dominant-baseline="central" text-anchor="middle" style="font-size:12px;font-family:sans-serif;" y="6" transform="translate(1289.1429 1018)" fill="#B9B8CE">5</text>
<text dominant-baseline="central" text-anchor="middle" style="font-size:12px;font-family:sans-serif;" y="6" transform="translate(1508.5714 1018)" fill="#B9B8CE">6</text>
<text dominant-baseline="central" text-anchor="middle" style="font-size:12px;font-family:sans-serif;" y="6" transform="translate(1728 1018)" fill="#B9B8CE">7</text>
<path d="M192 929.7l967 0l0 65.5l-967 0Z" fill="#4992ff" ecmeta_series_index="0" ecmeta_data_index="0" ecmeta_ssr_type="chart" class="zr0-cls-1"></path>
<path d="M192 834.7l985.7 0l0 65.5l-985.7 0Z" fill="#4992ff" ecmeta_series_index="0" ecmeta_data_index="1" ecmeta_ssr_type="chart" class="zr0-cls-1"></path>
<path d="M192 739.7l628.5 0l0 65.5l-628.5 0Z" fill="#4992ff" ecmeta_series_index="0" ecmeta_data_index="2" ecmeta_ssr_type="chart" class="zr0-cls-1"></path>
<path d="M192 644.7l730.6 0l0 65.5l-730.6 0Z" fill="#4992ff" ecmeta_series_index="0" ecmeta_data_index="3" ecmeta_ssr_type="chart" class="zr0-cls-1"></path>
<path d="M192 549.7l1191.2 0l0 65.5l-1191.2 0Z" fill="#4992ff" ecmeta_series_index="0" ecmeta_data_index="4" ecmeta_ssr_type="chart" class="zr0-cls-1"></path>
<path d="M192 454.7l1241.3 0l0 65.5l-1241.3 0Z" fill="#4992ff" ecmeta_series_index="0" ecmeta_data_index="5" ecmeta_ssr_type="chart" class="zr0-cls-1"></path>
<path d="M192 359.7l1098.9 0l0 65.6l-1098.9 0Z" fill="#4992ff" ecmeta_series_index="0" ecmeta_data_index="6" ecmeta_ssr_type="chart" class="zr0-cls-1"></path>
<path d="M192 264.7l1472.7 0l0 65.6l-1472.7 0Z" fill="#4992ff" ecmeta_series_index="0" ecmeta_data_index="7" ecmeta_ssr_type="chart" class="zr0-cls-1"></path>
<path d="M192 169.7l1102.6 0l0 65.5l-1102.6 0Z" fill="#4992ff" ecmeta_series_index="0" ecmeta_data_index="8" ecmeta_ssr_type="chart" class="zr0-cls-1"></path>
<path d="M192 74.7l940.2 0l0 65.5l-940.2 0Z" fill="#4992ff" ecmeta_series_index="0" ecmeta_data_index="9" ecmeta_ssr_type="chart" class="zr0-cls-1"></path>
<style ><![CDATA[
.zr0-cls-0:hover {
pointer-events:none;
}
.zr0-cls-1:hover {
cursor:pointer;
fill:rgba(80,160,255,1);
}

]]>

</style>
</svg>