<svg width="1920" height="1080" xmlns="http://www.w3.org/2000/svg" xmlns:xlink="http://www.w3.org/1999/xlink" version="1.1" baseProfile="full" viewBox="0 0 1920 1080">
<rect width="1920" height="1080" x="0" y="0" fill="#100C2A"></rect>
<path d="M192.5 60L192.5 1010" fill="transparent" stroke="#484753" class="zr0-cls-0"></path>
<path d="M499.5 60L499.5 1010" fill="transparent" stroke="#484753" class="zr0-cls-0"></path>
<path d="M806.5 60L806.5 1010" fill="transparent" stroke="#484753" class="zr0-cls-0"></path>
<path d="M1113.5 60L1113.5 1010" fill="transparent" stroke="#484753" class="zr0-cls-0"></path>
<path d="M1421.5 60L1421.5 1010" fill="transparent" stroke="#484753" class="zr0-cls-0"></path>
<path d="M1728.5 60L1728.5 1010" fill="transparent" stroke="#484753" class="zr0-cls-0"></path>
<path d="M192.5 1010L192.5 60" fill="transparent" stroke="#B9B8CE" stroke-linecap="round" class="zr0-cls-0"></path>
<path d="M192 1010.5L187 1010.5" fill="transparent" stroke="#B9B8CE" class="zr0-cls-0"></path>
<path d="M192 772.5L187 772.5" fill="transparent" stroke="#B9B8CE" class="zr0-cls-0"></path>
<path d="M192 535.5L187 535.5" fill="transparent" stroke="#B9B8CE" class="zr0-cls-0"></path>
<path d="M192 297.5L187 297.5" fill="transparent" stroke="#B9B8CE" class="zr0-cls-0"></path>
<path d="M192 60.5L187 60.5" fill="transparent" stroke="#B9B8CE" class="zr0-cls-0"></path>
<text dominant-baseline="central" text-anchor="end" style="font-size:12px;font-family:sans-serif;" transform="translate(184 891.25)" fill="#B9B8CE">2025::1_0</text>
<text dominant-baseline="central" text-anchor="end" style="font-size:12px;font-family:sans-serif;" transform="translate(184 653.75)" fill="#B9B8CE">2025::1_1</text>
<text dominant-baseline="central" text-anchor="end" style="font-size:12px;font-family:sans-serif;" transform="translate(184 416.25)" fill="#B9B8CE">2025::2_0</text>
<text dominant-baseline="central" text-anchor="end" style="font-size:12px;font-family:sans-serif;" transform="translate(184 178.75)" fill="#B9B8CE">2025::2_1</text>
<text dominant-baseline="central" text-anchor="middle" style="font-size:12px;font-family:sans-serif;" y="6" transform="translate(192 1018)" fill="#B9B8CE">0</text>
<text dominant-baseline="central" text-anchor="middle" style="font-size:12px;font-family:sans-serif;" y="6" transform="translate(499.2 1018)" fill="#B9B8CE">1</text>
<text dominant-baseline="central" text-anchor="middle" style="font-size:12px;font-family:sans-serif;" y="6" transform="translate(806.4 1018)" fill="#B9B8CE">2</text>
<text dominant-baseline="central" text-anchor="middle" style="font-size:12px;font-family:sans-serif;" y="6" transform="translate(1113.6 1018)" fill="#B9B8CE">3</text>
<text dominant-baseline="central" text-anchor="middle" style="font-size:12px;font-family:sans-serif;" y="6" transform="translate(1420.8 1018)" fill="#B9B8CE">4</text>
<text dominant-baseline="central" text-anchor="middle" style="font-size:12px;font-family:sans-serif;" y="6" transform="translate(1728 1018)" fill="#B9B8CE">5</text>
<path d="M192 809.3l1355.4 0l0 163.9l-1355.4 0Z" fill="#4992ff" ecmeta_series_index="0" ecmeta_data_index="0" ecmeta_ssr_type="chart" class="zr0-cls-1"></path>
<path d="M192 571.8l1377.8 0l0 163.9l-1377.8 0Z" fill="#4992ff" ecmeta_series_index="0" ecmeta_data_index="1" ecmeta_ssr_type="chart" class="zr0-cls-1"></path>
<path d="M192 334.3l879.7 0l0 163.9l-879.7 0Z" fill="#4992ff" ecmeta_series_index="0" ecmeta_data_index="2" ecmeta_ssr_type="chart" class="zr0-cls-1"></path>
<path d="M192 96.8l1027.7 0l0 163.9l-1027.7 0Z" fill="#4992ff" ecmeta_series_index="0" ecmeta_data_index="3" ecmeta_ssr_type="chart" class="zr0-cls-1"></path>
<style ><![CDATA[
.zr0-cls-0:hover {
pointer-events:none;
}
.zr0-cls-1:hover {
cursor:pointer;
fill:rgba(80,160,255,1);
}

]]>

</style>
</svg>