<svg width="600" height="450" xmlns="http://www.w3.org/2000/svg" xmlns:xlink="http://www.w3.org/1999/xlink" version="1.1" baseProfile="full" viewBox="0 0 600 450">
<rect width="600" height="450" x="0" y="0" fill="rgb(0,0,0)" fill-opacity="0"></rect>
<path d="M60 380.5L540 380.5" fill="transparent" stroke="#eeeeee" class="zr0-cls-0"></path>
<path d="M60 60.5L540 60.5" fill="transparent" stroke="#eeeeee" class="zr0-cls-0"></path>
<path d="M60.5 60L60.5 380" fill="transparent" stroke="#eeeeee" class="zr0-cls-0"></path>
<path d="M156.5 60L156.5 380" fill="transparent" stroke="#eeeeee" class="zr0-cls-0"></path>
<path d="M252.5 60L252.5 380" fill="transparent" stroke="#eeeeee" class="zr0-cls-0"></path>
<path d="M348.5 60L348.5 380" fill="transparent" stroke="#eeeeee" class="zr0-cls-0"></path>
<path d="M444.5 60L444.5 380" fill="transparent" stroke="#eeeeee" class="zr0-cls-0"></path>
<path d="M540.5 60L540.5 380" fill="transparent" stroke="#eeeeee" class="zr0-cls-0"></path>
<path d="M60.5 380L60.5 60" fill="transparent" stroke="#cccccc" stroke-linecap="round" class="zr0-cls-0"></path>
<path d="M60 380.5L540 380.5" fill="transparent" stroke="#cccccc" stroke-linecap="round" class="zr0-cls-0"></path>
<text dominant-baseline="central" text-anchor="end" style="font-size:12px;font-family:sans-serif;" transform="translate(52 220)" fill="#999999">aoc2025::day01_0</text>
<text dominant-baseline="central" text-anchor="middle" style="font-size:12px;font-family:sans-serif;" y="6" transform="translate(60 388)" fill="#999999">0</text>
<text dominant-baseline="central" text-anchor="middle" style="font-size:12px;font-family:sans-serif;" y="6" transform="translate(156 388)" fill="#999999">1</text>
<text dominant-baseline="central" text-anchor="middle" style="font-size:12px;font-family:sans-serif;" y="6" transform="translate(252 388)" fill="#999999">2</text>
<text dominant-baseline="central" text-anchor="middle" style="font-size:12px;font-family:sans-serif;" y="6" transform="translate(348 388)" fill="#999999">3</text>
<text dominant-baseline="central" text-anchor="middle" style="font-size:12px;font-family:sans-serif;" y="6" transform="translate(444 388)" fill="#999999">4</text>
<text dominant-baseline="central" text-anchor="middle" style="font-size:12px;font-family:sans-serif;" y="6" transform="translate(540 388)" fill="#999999">5</text>
<path d="M60 109.6l421.7 0l0 220.8l-421.7 0Z" fill="#516b91" ecmeta_series_index="0" ecmeta_data_index="0" ecmeta_ssr_type="chart" class="zr0-cls-1"></path>
<style ><![CDATA[
.zr0-cls-0:hover {
pointer-events:none;
}
.zr0-cls-1:hover {
cursor:pointer;
fill:rgba(89,117,159,1);
}

]]>

</style>
</svg>