<svg width="600" height="450" xmlns="http://www.w3.org/2000/svg" xmlns:xlink="http://www.w3.org/1999/xlink" version="1.1" baseProfile="full" viewBox="0 0 600 450">
<rect width="600" height="450" x="0" y="0" fill="rgb(0,0,0)" fill-opacity="0"></rect>
<path d="M60 380.5L540 380.5" fill="transparent" stroke="#eeeeee" class="zr0-cls-0"></path>
<path d="M60 361.5L540 361.5" fill="transparent" stroke="#eeeeee" class="zr0-cls-0"></path>
<path d="M60 341.5L540 341.5" fill="transparent" stroke="#eeeeee" class="zr0-cls-0"></path>
<path d="M60 322.5L540 322.5" fill="transparent" stroke="#eeeeee" class="zr0-cls-0"></path>
<path d="M60 303.5L540 303.5" fill="transparent" stroke="#eeeeee" class="zr0-cls-0"></path>
<path d="M60 284.5L540 284.5" fill="transparent" stroke="#eeeeee" class="zr0-cls-0"></path>
<path d="M60 265.5L540 265.5" fill="transparent" stroke="#eeeeee" class="zr0-cls-0"></path>
<path d="M60 245.5L540 245.5" fill="transparent" stroke="#eeeeee" class="zr0-cls-0"></path>
<path d="M60 226.5L540 226.5" fill="transparent" stroke="#eeeeee" class="zr0-cls-0"></path>
<path d="M60 207.5L540 207.5" fill="transparent" stroke="#eeeeee" class="zr0-cls-0"></path>
<path d="M60 188.5L540 188.5" fill="transparent" stroke="#eeeeee" class="zr0-cls-0"></path>
<path d="M60 169.5L540 169.5" fill="transparent" stroke="#eeeeee" class="zr0-cls-0"></path>
<path d="M60 149.5L540 149.5" fill="transparent" stroke="#eeeeee" class="zr0-cls-0"></path>
<path d="M60 130.5L540 130.5" fill="transparent" stroke="#eeeeee" class="zr0-cls-0"></path>
<path d="M60 111.5L540 111.5" fill="transparent" stroke="#eeeeee" class="zr0-cls-0"></path>
<path d="M60 92.5L540 92.5" fill="transparent" stroke="#eeeeee" class="zr0-cls-0"></path>
<path d="M60 73.5L540 73.5" fill="transparent" stroke="#eeeeee" class="zr0-cls-0"></path>
<path d="M60 60.5L540 60.5" fill="transparent" stroke="#eeeeee" class="zr0-cls-0"></path>
<path d="M60.5 60L60.5 380" fill="transparent" stroke="#eeeeee" class="zr0-cls-0"></path>
<path d="M156.5 60L156.5 380" fill="transparent" stroke="#eeeeee" class="zr0-cls-0"></path>
<path d="M252.5 60L252.5 380" fill="transparent" stroke="#eeeeee" class="zr0-cls-0"></path>
<path d="M348.5 60L348.5 380" fill="transparent" stroke="#eeeeee" class="zr0-cls-0"></path>
<path d="M444.5 60L444.5 380" fill="transparent" stroke="#eeeeee" class="zr0-cls-0"></path>
<path d="M540.5 60L540.5 380" fill="transparent" stroke="#eeeeee" class="zr0-cls-0"></path>
<path d="M60.5 380L60.5 60" fill="transparent" stroke="#cccccc" stroke-linecap="round" class="zr0-cls-0"></path>
<path d="M60 380.5L540 380.5" fill="transparent" stroke="#cccccc" stroke-linecap="round" class="zr0-cls-0"></path>
<text dominant-baseline="central" text-anchor="end" style="font-size:12px;font-family:sans-serif;" transform="translate(52 376.8)" fill="#999999">2024::day01_0</text>
<text dominant-baseline="central" text-anchor="end" style="font-size:12px;font-family:sans-serif;" transform="translate(52 357.6)" fill="#999999">2024::day02_1</text>
<text dominant-baseline="central" text-anchor="end" style="font-size:12px;font-family:sans-serif;" transform="translate(52 338.4)" fill="#999999">2024::day04_0</text>
<text dominant-baseline="central" text-anchor="end" style="font-size:12px;font-family:sans-serif;" transform="translate(52 319.2)" fill="#999999">2024::day05_1</text>
<text dominant-baseline="central" text-anchor="end" style="font-size:12px;font-family:sans-serif;" transform="translate(52 300)" fill="#999999">2024::day07_0</text>
<text dominant-baseline="central" text-anchor="end" style="font-size:12px;font-family:sans-serif;" transform="translate(52 280.8)" fill="#999999">2024::day08_1</text>
<text dominant-baseline="central" text-anchor="end" style="font-size:12px;font-family:sans-serif;" transform="translate(52 261.6)" fill="#999999">2024::day10_0</text>
<text dominant-baseline="central" text-anchor="end" style="font-size:12px;font-family:sans-serif;" transform="translate(52 242.4)" fill="#999999">2024::day11_1</text>
<text dominant-baseline="central" text-anchor="end" style="font-size:12px;font-family:sans-serif;" transform="translate(52 223.2)" fill="#999999">2024::day13_0</text>
<text dominant-baseline="central" text-anchor="end" style="font-size:12px;font-family:sans-serif;" transform="translate(52 204)" fill="#999999">2024::day14_1</text>
<text dominant-baseline="central" text-anchor="end" style="font-size:12px;font-family:sans-serif;" transform="translate(52 184.8)" fill="#999999">2024::day16_0</text>
<text dominant-baseline="central" text-anchor="end" style="font-size:12px;font-family:sans-serif;" transform="translate(52 165.6)" fill="#999999">2024::day17_1</text>
<text dominant-baseline="central" text-anchor="end" style="font-size:12px;font-family:sans-serif;" transform="translate(52 146.4)" fill="#999999">2024::day19_0</text>
<text dominant-baseline="central" text-anchor="end" style="font-size:12px;font-family:sans-serif;" transform="translate(52 127.2)" fill="#999999">2024::day20_1</text>
<text dominant-baseline="central" text-anchor="end" style="font-size:12px;font-family:sans-serif;" transform="translate(52 108)" fill="#999999">2024::day22_0</text>
<text dominant-baseline="central" text-anchor="end" style="font-size:12px;font-family:sans-serif;" transform="translate(52 88.8)" fill="#999999">2024::day23_1</text>
<text dominant-baseline="central" text-anchor="end" style="font-size:12px;font-family:sans-serif;" transform="translate(52 69.6)" fill="#999999">2024::day25_0</text>
<text dominant-baseline="central" text-anchor="middle" style="font-size:12px;font-family:sans-serif;" y="6" transform="translate(60 388)" fill="#999999">0</text>
<text dominant-baseline="central" text-anchor="middle" style="font-size:12px;font-family:sans-serif;" y="6" transform="translate(156 388)" fill="#999999">2</text>
<text dominant-baseline="central" text-anchor="middle" style="font-size:12px;font-family:sans-serif;" y="6" transform="translate(252 388)" fill="#999999">4</text>
<text dominant-baseline="central" text-anchor="middle" style="font-size:12px;font-family:sans-serif;" y="6" transform="translate(348 388)" fill="#999999">6</text>
<text dominant-baseline="central" text-anchor="middle" style="font-size:12px;font-family:sans-serif;" y="6" transform="translate(444 388)" fill="#999999">8</text>
<text dominant-baseline="central" text-anchor="middle" style="font-size:12px;font-family:sans-serif;" y="6" transform="translate(540 388)" fill="#999999">10</text>
<path d="M60 374.6l306 0l0 4.4l-306 0Z" fill="#516b91" ecmeta_series_index="0" ecmeta_data_index="0" ecmeta_ssr_type="chart" class="zr0-cls-1"></path>
<path d="M60 368.2l337.8 0l0 4.4l-337.8 0Z" fill="#516b91" ecmeta_series_index="0" ecmeta_data_index="1" ecmeta_ssr_type="chart" class="zr0-cls-1"></path>
<path d="M60 361.8l287.1 0l0 4.4l-287.1 0Z" fill="#516b91" ecmeta_series_index="0" ecmeta_data_index="2" ecmeta_ssr_type="chart" class="zr0-cls-1"></path>
<path d="M60 355.4l295 0l0 4.4l-295 0Z" fill="#516b91" ecmeta_series_index="0" ecmeta_data_index="3" ecmeta_ssr_type="chart" class="zr0-cls-1"></path>
<path d="M60 349l306.2 0l0 4.4l-306.2 0Z" fill="#516b91" ecmeta_series_index="0" ecmeta_data_index="4" ecmeta_ssr_type="chart" class="zr0-cls-1"></path>
<path d="M60 342.6l315.1 0l0 4.4l-315.1 0Z" fill="#516b91" ecmeta_series_index="0" ecmeta_data_index="5" ecmeta_ssr_type="chart" class="zr0-cls-1"></path>
<path d="M60 336.2l336.4 0l0 4.4l-336.4 0Z" fill="#516b91" ecmeta_series_index="0" ecmeta_data_index="6" ecmeta_ssr_type="chart" class="zr0-cls-1"></path>
<path d="M60 329.8l274.6 0l0 4.4l-274.6 0Z" fill="#516b91" ecmeta_series_index="0" ecmeta_data_index="7" ecmeta_ssr_type="chart" class="zr0-cls-1"></path>
<path d="M60 323.4l313 0l0 4.4l-313 0Z" fill="#516b91" ecmeta_series_index="0" ecmeta_data_index="8" ecmeta_ssr_type="chart" class="zr0-cls-1"></path>
<path d="M60 317l314.6 0l0 4.4l-314.6 0Z" fill="#516b91" ecmeta_series_index="0" ecmeta_data_index="9" ecmeta_ssr_type="chart" class="zr0-cls-1"></path>
<path d="M60 310.6l302.6 0l0 4.4l-302.6 0Z" fill="#516b91" ecmeta_series_index="0" ecmeta_data_index="10" ecmeta_ssr_type="chart" class="zr0-cls-1"></path>
<path d="M60 304.2l350.4 0l0 4.4l-350.4 0Z" fill="#516b91" ecmeta_series_index="0" ecmeta_data_index="11" ecmeta_ssr_type="chart" class="zr0-cls-1"></path>
<path d="M60 297.8l338.3 0l0 4.4l-338.3 0Z" fill="#516b91" ecmeta_series_index="0" ecmeta_data_index="12" ecmeta_ssr_type="chart" class="zr0-cls-1"></path>
<path d="M60 291.4l413.6 0l0 4.4l-413.6 0Z" fill="#516b91" ecmeta_series_index="0" ecmeta_data_index="13" ecmeta_ssr_type="chart" class="zr0-cls-1"></path>
<path d="M60 285l258.8 0l0 4.4l-258.8 0Z" fill="#516b91" ecmeta_series_index="0" ecmeta_data_index="14" ecmeta_ssr_type="chart" class="zr0-cls-1"></path>
<path d="M60 278.6l283.5 0l0 4.4l-283.5 0Z" fill="#516b91" ecmeta_series_index="0" ecmeta_data_index="15" ecmeta_ssr_type="chart" class="zr0-cls-1"></path>
<path d="M60 272.2l313 0l0 4.4l-313 0Z" fill="#516b91" ecmeta_series_index="0" ecmeta_data_index="16" ecmeta_ssr_type="chart" class="zr0-cls-1"></path>
<path d="M60 265.8l433.3 0l0 4.4l-433.3 0Z" fill="#516b91" ecmeta_series_index="0" ecmeta_data_index="17" ecmeta_ssr_type="chart" class="zr0-cls-1"></path>
<path d="M60 259.4l291.5 0l0 4.4l-291.5 0Z" fill="#516b91" ecmeta_series_index="0" ecmeta_data_index="18" ecmeta_ssr_type="chart" class="zr0-cls-1"></path>
<path d="M60 253l282.3 0l0 4.4l-282.3 0Z" fill="#516b91" ecmeta_series_index="0" ecmeta_data_index="19" ecmeta_ssr_type="chart" class="zr0-cls-1"></path>
<path d="M60 246.6l183.8 0l0 4.4l-183.8 0Z" fill="#516b91" ecmeta_series_index="0" ecmeta_data_index="20" ecmeta_ssr_type="chart" class="zr0-cls-1"></path>
<path d="M60 240.2l183.4 0l0 4.4l-183.4 0Z" fill="#516b91" ecmeta_series_index="0" ecmeta_data_index="21" ecmeta_ssr_type="chart" class="zr0-cls-1"></path>
<path d="M60 233.8l314.1 0l0 4.4l-314.1 0Z" fill="#516b91" ecmeta_series_index="0" ecmeta_data_index="22" ecmeta_ssr_type="chart" class="zr0-cls-1"></path>
<path d="M60 227.4l327.2 0l0 4.4l-327.2 0Z" fill="#516b91" ecmeta_series_index="0" ecmeta_data_index="23" ecmeta_ssr_type="chart" class="zr0-cls-1"></path>
<path d="M60 221l310.2 0l0 4.4l-310.2 0Z" fill="#516b91" ecmeta_series_index="0" ecmeta_data_index="24" ecmeta_ssr_type="chart" class="zr0-cls-1"></path>
<path d="M60 214.6l310.3 0l0 4.4l-310.3 0Z" fill="#516b91" ecmeta_series_index="0" ecmeta_data_index="25" ecmeta_ssr_type="chart" class="zr0-cls-1"></path>
<path d="M60 208.2l292.5 0l0 4.4l-292.5 0Z" fill="#516b91" ecmeta_series_index="0" ecmeta_data_index="26" ecmeta_ssr_type="chart" class="zr0-cls-1"></path>
<path d="M60 201.8l330.5 0l0 4.4l-330.5 0Z" fill="#516b91" ecmeta_series_index="0" ecmeta_data_index="27" ecmeta_ssr_type="chart" class="zr0-cls-1"></path>
<path d="M60 195.4l299 0l0 4.4l-299 0Z" fill="#516b91" ecmeta_series_index="0" ecmeta_data_index="28" ecmeta_ssr_type="chart" class="zr0-cls-1"></path>
<path d="M60 189l313.7 0l0 4.4l-313.7 0Z" fill="#516b91" ecmeta_series_index="0" ecmeta_data_index="29" ecmeta_ssr_type="chart" class="zr0-cls-1"></path>
<path d="M60 182.6l368.4 0l0 4.4l-368.4 0Z" fill="#516b91" ecmeta_series_index="0" ecmeta_data_index="30" ecmeta_ssr_type="chart" class="zr0-cls-1"></path>
<path d="M60 176.2l409.2 0l0 4.4l-409.2 0Z" fill="#516b91" ecmeta_series_index="0" ecmeta_data_index="31" ecmeta_ssr_type="chart" class="zr0-cls-1"></path>
<path d="M60 169.8l179.6 0l0 4.4l-179.6 0Z" fill="#516b91" ecmeta_series_index="0" ecmeta_data_index="32" ecmeta_ssr_type="chart" class="zr0-cls-1"></path>
<path d="M60 163.4l244.6 0l0 4.4l-244.6 0Z" fill="#516b91" ecmeta_series_index="0" ecmeta_data_index="33" ecmeta_ssr_type="chart" class="zr0-cls-1"></path>
<path d="M60 157l331.8 0l0 4.4l-331.8 0Z" fill="#516b91" ecmeta_series_index="0" ecmeta_data_index="34" ecmeta_ssr_type="chart" class="zr0-cls-1"></path>
<path d="M60 150.6l357.4 0l0 4.4l-357.4 0Z" fill="#516b91" ecmeta_series_index="0" ecmeta_data_index="35" ecmeta_ssr_type="chart" class="zr0-cls-1"></path>
<path d="M60 144.2l279.4 0l0 4.4l-279.4 0Z" fill="#516b91" ecmeta_series_index="0" ecmeta_data_index="36" ecmeta_ssr_type="chart" class="zr0-cls-1"></path>
<path d="M60 137.8l349.7 0l0 4.4l-349.7 0Z" fill="#516b91" ecmeta_series_index="0" ecmeta_data_index="37" ecmeta_ssr_type="chart" class="zr0-cls-1"></path>
<path d="M60 131.4l344.1 0l0 4.4l-344.1 0Z" fill="#516b91" ecmeta_series_index="0" ecmeta_data_index="38" ecmeta_ssr_type="chart" class="zr0-cls-1"></path>
<path d="M60 125l371.9 0l0 4.4l-371.9 0Z" fill="#516b91" ecmeta_series_index="0" ecmeta_data_index="39" ecmeta_ssr_type="chart" class="zr0-cls-1"></path>
<path d="M60 118.6l326.4 0l0 4.4l-326.4 0Z" fill="#516b91" ecmeta_series_index="0" ecmeta_data_index="40" ecmeta_ssr_type="chart" class="zr0-cls-1"></path>
<path d="M60 112.2l371.9 0l0 4.4l-371.9 0Z" fill="#516b91" ecmeta_series_index="0" ecmeta_data_index="41" ecmeta_ssr_type="chart" class="zr0-cls-1"></path>
<path d="M60 105.8l367.7 0l0 4.4l-367.7 0Z" fill="#516b91" ecmeta_series_index="0" ecmeta_data_index="42" ecmeta_ssr_type="chart" class="zr0-cls-1"></path>
<path d="M60 99.4l457.7 0l0 4.4l-457.7 0Z" fill="#516b91" ecmeta_series_index="0" ecmeta_data_index="43" ecmeta_ssr_type="chart" class="zr0-cls-1"></path>
<path d="M60 93l324.6 0l0 4.4l-324.6 0Z" fill="#516b91" ecmeta_series_index="0" ecmeta_data_index="44" ecmeta_ssr_type="chart" class="zr0-cls-1"></path>
<path d="M60 86.6l438.7 0l0 4.4l-438.7 0Z" fill="#516b91" ecmeta_series_index="0" ecmeta_data_index="45" ecmeta_ssr_type="chart" class="zr0-cls-1"></path>
<path d="M60 80.2l293.4 0l0 4.4l-293.4 0Z" fill="#516b91" ecmeta_series_index="0" ecmeta_data_index="46" ecmeta_ssr_type="chart" class="zr0-cls-1"></path>
<path d="M60 73.8l273.8 0l0 4.4l-273.8 0Z" fill="#516b91" ecmeta_series_index="0" ecmeta_data_index="47" ecmeta_ssr_type="chart" class="zr0-cls-1"></path>
<path d="M60 67.4l313.6 0l0 4.4l-313.6 0Z" fill="#516b91" ecmeta_series_index="0" ecmeta_data_index="48" ecmeta_ssr_type="chart" class="zr0-cls-1"></path>
<path d="M60 61l306 0l0 4.4l-306 0Z" fill="#516b91" ecmeta_series_index="0" ecmeta_data_index="49" ecmeta_ssr_type="chart" class="zr0-cls-1"></path>
<style ><![CDATA[
.zr0-cls-0:hover {
pointer-events:none;
}
.zr0-cls-1:hover {
cursor:pointer;
fill:rgba(89,117,159,1);
}

]]>

</style>
</svg>